<svg width="133" height="30" viewBox="0 0 133 30" fill="none" xmlns="http://www.w3.org/2000/svg">
<circle cx="15" cy="15" r="13" fill="#6D31EE"/>
<g filter="url(#filter0_d_58_167)">
<circle cx="15" cy="15" r="6" fill="white"/>
</g>
<path d="M45.52 21H43.84V7H55.26V21H53.58V8.6H45.52V21ZM59.2228 19.9C58.2095 18.9933 57.7028 17.76 57.7028 16.2C57.7028 14.64 58.2095 13.4133 59.2228 12.52C60.2361 11.6133 61.4361 11.16 62.8228 11.16C64.2228 11.16 65.4228 11.6133 66.4228 12.52C67.4361 13.4133 67.9428 14.64 67.9428 16.2C67.9428 17.76 67.4361 18.9933 66.4228 19.9C65.4228 20.7933 64.2228 21.24 62.8228 21.24C61.4361 21.24 60.2361 20.7933 59.2228 19.9ZM65.3428 18.78C66.0095 18.14 66.3428 17.28 66.3428 16.2C66.3428 15.12 66.0095 14.2667 65.3428 13.64C64.6761 13 63.8361 12.68 62.8228 12.68C61.8095 12.68 60.9695 13 60.3028 13.64C59.6361 14.2667 59.3028 15.12 59.3028 16.2C59.3028 17.28 59.6361 18.14 60.3028 18.78C60.9695 19.4067 61.8095 19.72 62.8228 19.72C63.8361 19.72 64.6761 19.4067 65.3428 18.78ZM69.5778 16.24C69.5778 15.4 69.7311 14.6467 70.0378 13.98C70.3445 13.3133 70.7445 12.78 71.2378 12.38C71.7445 11.98 72.2978 11.68 72.8978 11.48C73.5111 11.2667 74.1378 11.16 74.7778 11.16C75.9645 11.16 76.9511 11.42 77.7378 11.94V13.5C77.0045 12.9267 76.0845 12.64 74.9778 12.64C73.9378 12.64 73.0445 12.94 72.2978 13.54C71.5511 14.14 71.1778 15.0267 71.1778 16.2C71.1778 17.36 71.5445 18.2467 72.2778 18.86C73.0245 19.46 73.9111 19.76 74.9378 19.76C76.0045 19.76 76.9711 19.5 77.8378 18.98V20.58C76.9311 21.02 75.8911 21.24 74.7178 21.24C73.3311 21.24 72.1245 20.8067 71.0978 19.94C70.0845 19.0733 69.5778 17.84 69.5778 16.24ZM84.1792 21H82.5792V12.88H79.0392V11.4H87.6992V12.88H84.1792V21ZM91.1152 21H89.5152V11.4H98.2752V21H96.6752V12.88H91.1152V21ZM109.034 19C109.034 19.4933 109.281 19.74 109.774 19.74C109.987 19.74 110.234 19.6933 110.514 19.6V20.9C110.114 21.0467 109.714 21.12 109.314 21.12C108.394 21.12 107.807 20.7333 107.554 19.96C106.527 20.8133 105.281 21.24 103.814 21.24C102.881 21.24 102.081 20.9933 101.414 20.5C100.761 19.9933 100.434 19.2667 100.434 18.32C100.434 17.1867 100.854 16.3667 101.694 15.86C102.547 15.34 103.574 15.08 104.774 15.08C105.654 15.08 106.541 15.18 107.434 15.38V15.04C107.434 14.3067 107.194 13.7267 106.714 13.3C106.234 12.86 105.561 12.64 104.694 12.64C103.481 12.64 102.314 12.88 101.194 13.36V11.8C102.447 11.3733 103.667 11.16 104.854 11.16C106.161 11.16 107.181 11.5133 107.914 12.22C108.661 12.9133 109.034 13.92 109.034 15.24V19ZM102.074 18.24C102.074 18.7733 102.274 19.18 102.674 19.46C103.087 19.7267 103.581 19.86 104.154 19.86C105.474 19.86 106.567 19.3933 107.434 18.46V16.7C106.527 16.5133 105.714 16.42 104.994 16.42C104.181 16.42 103.487 16.5667 102.914 16.86C102.354 17.14 102.074 17.6 102.074 18.24ZM113.83 21H112.23V11.4H113.83V15.46H119.39V11.4H120.99V21H119.39V16.94H113.83V21ZM125.549 21H123.949V11.4H125.549V15.4H127.489L130.529 11.4H132.389L128.749 16.18L132.829 21H130.949L127.429 16.88H125.549V21Z" fill="#121723"/>
<defs>
<filter id="filter0_d_58_167" x="4" y="4" width="22" height="22" filterUnits="userSpaceOnUse" color-interpolation-filters="sRGB">
<feFlood flood-opacity="0" result="BackgroundImageFix"/>
<feColorMatrix in="SourceAlpha" type="matrix" values="0 0 0 0 0 0 0 0 0 0 0 0 0 0 0 0 0 0 127 0" result="hardAlpha"/>
<feOffset/>
<feGaussianBlur stdDeviation="2.5"/>
<feColorMatrix type="matrix" values="0 0 0 0 0.119541 0 0 0 0 0.0511111 0 0 0 0 0.266667 0 0 0 0.8 0"/>
<feBlend mode="normal" in2="BackgroundImageFix" result="effect1_dropShadow_58_167"/>
<feBlend mode="normal" in="SourceGraphic" in2="effect1_dropShadow_58_167" result="shape"/>
</filter>
</defs>
</svg>
